HIERARCHY
ROOT Hips
{
  OFFSET 0.000 65.551 0.000
  CHANNELS 6 Xposition Yposition Zposition Zrotation Xrotation Yrotation
  JOINT LeftUpLeg
  {
    OFFSET 7.473 0.931 3.416
    CHANNELS 6 Xposition Yposition Zposition Zrotation Xrotation Yrotation
    JOINT LeftLeg
    {
      OFFSET 0.000 -31.435 0.000
      CHANNELS 6 Xposition Yposition Zposition Zrotation Xrotation Yrotation
      JOINT LeftFoot
      {
        OFFSET 0.000 -35.047 0.000
        CHANNELS 6 Xposition Yposition Zposition Zrotation Xrotation Yrotation
        End Site
        {
          OFFSET 0.000 0.000 9.409
        }
      }
    }
  }
  JOINT RightUpLeg
  {
    OFFSET -7.473 0.931 3.416
    CHANNELS 6 Xposition Yposition Zposition Zrotation Xrotation Yrotation
    JOINT RightLeg
    {
      OFFSET 0.000 -31.435 0.000
      CHANNELS 6 Xposition Yposition Zposition Zrotation Xrotation Yrotation
      JOINT RightFoot
      {
        OFFSET 0.000 -35.047 0.000
        CHANNELS 6 Xposition Yposition Zposition Zrotation Xrotation Yrotation
        End Site
        {
          OFFSET 0.000 0.000 9.409
        }
      }
    }
  }
  JOINT Spine
  {
    OFFSET 0.000 28.821 0.000
    CHANNELS 6 Xposition Yposition Zposition Zrotation Xrotation Yrotation
    JOINT Spine1
    {
      OFFSET 0.000 21.148 0.000
      CHANNELS 6 Xposition Yposition Zposition Zrotation Xrotation Yrotation
      JOINT LeftShoulder
      {
        OFFSET 1.582 -0.424 0.411
        CHANNELS 6 Xposition Yposition Zposition Zrotation Xrotation Yrotation
        JOINT LeftArm
        {
          OFFSET 15.520 0.000 0.000
          CHANNELS 6 Xposition Yposition Zposition Zrotation Xrotation Yrotation
          JOINT LeftForeArm
          {
            OFFSET 27.228 0.000 0.000
            CHANNELS 6 Xposition Yposition Zposition Zrotation Xrotation Yrotation
            JOINT LeftHand
            {
              OFFSET 22.918 0.000 0.000
              CHANNELS 6 Xposition Yposition Zposition Zrotation Xrotation Yrotation
              JOINT LeftHandThumb1
              {
                OFFSET 4.877 -1.044 3.608
                CHANNELS 6 Xposition Yposition Zposition Zrotation Xrotation Yrotation
                JOINT LeftHandThumb2
                {
                  OFFSET 2.665 0.000 0.000
                  CHANNELS 6 Xposition Yposition Zposition Zrotation Xrotation Yrotation
                  JOINT LeftHandThumb3
                  {
                    OFFSET 2.543 0.000 -0.000
                    CHANNELS 6 Xposition Yposition Zposition Zrotation Xrotation Yrotation
                    End Site
                    {
                      OFFSET 2.667 -0.000 0.000
                    }
                  }
                }
              }
              JOINT LeftHandIndex1
              {
                OFFSET 9.232 -0.301 2.144
                CHANNELS 6 Xposition Yposition Zposition Zrotation Xrotation Yrotation
                JOINT LeftHandIndex2
                {
                  OFFSET 4.225 0.000 0.000
                  CHANNELS 6 Xposition Yposition Zposition Zrotation Xrotation Yrotation
                  JOINT LeftHandIndex3
                  {
                    OFFSET 2.654 0.000 -0.000
                    CHANNELS 6 Xposition Yposition Zposition Zrotation Xrotation Yrotation
                    End Site
                    {
                      OFFSET 1.958 0.000 -0.000
                    }
                  }
                }
              }
              JOINT LeftHandMiddle1
              {
                OFFSET 8.920 0.000 -0.000
                CHANNELS 6 Xposition Yposition Zposition Zrotation Xrotation Yrotation
                JOINT LeftHandMiddle2
                {
                  OFFSET 4.863 0.000 0.000
                  CHANNELS 6 Xposition Yposition Zposition Zrotation Xrotation Yrotation
                  JOINT LeftHandMiddle3
                  {
                    OFFSET 2.765 -0.000 0.000
                    CHANNELS 6 Xposition Yposition Zposition Zrotation Xrotation Yrotation
                    End Site
                    {
                      OFFSET 2.006 0.000 0.000
                    }
                  }
                }
              }
              JOINT LeftHandRing1
              {
                OFFSET 8.689 -0.126 -2.087
                CHANNELS 6 Xposition Yposition Zposition Zrotation Xrotation Yrotation
                JOINT LeftHandRing2
                {
                  OFFSET 4.538 0.000 -0.000
                  CHANNELS 6 Xposition Yposition Zposition Zrotation Xrotation Yrotation
                  JOINT LeftHandRing3
                  {
                    OFFSET 2.305 0.000 0.000
                    CHANNELS 6 Xposition Yposition Zposition Zrotation Xrotation Yrotation
                    End Site
                    {
                      OFFSET 1.923 0.000 0.000
                    }
                  }
                }
              }
              JOINT LeftHandPinky1
              {
                OFFSET 8.391 -0.817 -3.758
                CHANNELS 6 Xposition Yposition Zposition Zrotation Xrotation Yrotation
                JOINT LeftHandPinky2
                {
                  OFFSET 3.044 0.000 0.000
                  CHANNELS 6 Xposition Yposition Zposition Zrotation Xrotation Yrotation
                  JOINT LeftHandPinky3
                  {
                    OFFSET 1.975 -0.000 -0.000
                    CHANNELS 6 Xposition Yposition Zposition Zrotation Xrotation Yrotation
                    End Site
                    {
                      OFFSET 1.667 0.000 0.000
                    }
                  }
                }
              }
            }
          }
        }
      }
      JOINT RightShoulder
      {
        OFFSET -1.582 -0.424 0.411
        CHANNELS 6 Xposition Yposition Zposition Zrotation Xrotation Yrotation
        JOINT RightArm
        {
          OFFSET -15.520 0.000 0.000
          CHANNELS 6 Xposition Yposition Zposition Zrotation Xrotation Yrotation
          JOINT RightForeArm
          {
            OFFSET -27.228 0.000 0.000
            CHANNELS 6 Xposition Yposition Zposition Zrotation Xrotation Yrotation
            JOINT RightHand
            {
              OFFSET -22.918 0.000 0.000
              CHANNELS 6 Xposition Yposition Zposition Zrotation Xrotation Yrotation
              JOINT RightHandThumb1
              {
                OFFSET -4.877 -1.044 3.608
                CHANNELS 6 Xposition Yposition Zposition Zrotation Xrotation Yrotation
                JOINT RightHandThumb2
                {
                  OFFSET -2.665 -0.000 -0.000
                  CHANNELS 6 Xposition Yposition Zposition Zrotation Xrotation Yrotation
                  JOINT RightHandThumb3
                  {
                    OFFSET -2.543 0.000 -0.000
                    CHANNELS 6 Xposition Yposition Zposition Zrotation Xrotation Yrotation
                    End Site
                    {
                      OFFSET -2.667 0.000 0.000
                    }
                  }
                }
              }
              JOINT RightHandIndex1
              {
                OFFSET -9.232 -0.301 2.144
                CHANNELS 6 Xposition Yposition Zposition Zrotation Xrotation Yrotation
                JOINT RightHandIndex2
                {
                  OFFSET -4.225 -0.000 -0.000
                  CHANNELS 6 Xposition Yposition Zposition Zrotation Xrotation Yrotation
                  JOINT RightHandIndex3
                  {
                    OFFSET -2.654 0.000 0.000
                    CHANNELS 6 Xposition Yposition Zposition Zrotation Xrotation Yrotation
                    End Site
                    {
                      OFFSET -1.958 -0.000 -0.000
                    }
                  }
                }
              }
              JOINT RightHandMiddle1
              {
                OFFSET -8.920 -0.000 -0.000
                CHANNELS 6 Xposition Yposition Zposition Zrotation Xrotation Yrotation
                JOINT RightHandMiddle2
                {
                  OFFSET -4.863 0.000 0.000
                  CHANNELS 6 Xposition Yposition Zposition Zrotation Xrotation Yrotation
                  JOINT RightHandMiddle3
                  {
                    OFFSET -2.765 0.000 -0.000
                    CHANNELS 6 Xposition Yposition Zposition Zrotation Xrotation Yrotation
                    End Site
                    {
                      OFFSET -2.006 0.000 -0.000
                    }
                  }
                }
              }
              JOINT RightHandRing1
              {
                OFFSET -8.689 -0.126 -2.087
                CHANNELS 6 Xposition Yposition Zposition Zrotation Xrotation Yrotation
                JOINT RightHandRing2
                {
                  OFFSET -4.538 0.000 -0.000
                  CHANNELS 6 Xposition Yposition Zposition Zrotation Xrotation Yrotation
                  JOINT RightHandRing3
                  {
                    OFFSET -2.305 0.000 0.000
                    CHANNELS 6 Xposition Yposition Zposition Zrotation Xrotation Yrotation
                    End Site
                    {
                      OFFSET -1.923 -0.000 0.000
                    }
                  }
                }
              }
              JOINT RightHandPinky1
              {
                OFFSET -8.391 -0.817 -3.758
                CHANNELS 6 Xposition Yposition Zposition Zrotation Xrotation Yrotation
                JOINT RightHandPinky2
                {
                  OFFSET -3.044 0.000 -0.000
                  CHANNELS 6 Xposition Yposition Zposition Zrotation Xrotation Yrotation
                  JOINT RightHandPinky3
                  {
                    OFFSET -1.975 -0.000 -0.000
                    CHANNELS 6 Xposition Yposition Zposition Zrotation Xrotation Yrotation
                    End Site
                    {
                      OFFSET -1.667 -0.000 0.000
                    }
                  }
                }
              }
            }
          }
        }
      }
      JOINT Neck
      {
        OFFSET 0.000 0.698 0.000
        CHANNELS 6 Xposition Yposition Zposition Zrotation Xrotation Yrotation
        JOINT Head
        {
          OFFSET 0.000 6.312 0.000
          CHANNELS 6 Xposition Yposition Zposition Zrotation Xrotation Yrotation
          End Site
          {
            OFFSET 0.000 14.292 0.000
          }
        }
      }
    }
  }
}
MOTION
Frames:	4
Frame Time:	0.033333
-19.39575 94.45242 -194.29611 -4.53362 5.60337 4.09204 7.51586 0.41344 3.53178 14.29439 -12.63507 14.50009 -0.21960 -32.45689 -1.08923 -15.44220 16.82499 -8.35227 0.25376 -36.86166 0.06224 0.42139 9.03285 -2.15830 -7.21235 1.17320 3.52689 -48.85695 -50.79204 -33.98250 0.23003 -31.33784 0.34266 89.08392 60.52302 -45.11558 0.00490 -38.18282 -0.04716 -0.36280 1.52039 -10.03646 0.04166 27.96500 -0.02473 0.00479 2.33945 -1.30002 0.11229 20.40840 -0.00045 -0.17270 2.82213 -1.20374 1.66599 -0.25024 0.30057 -6.34367 1.47100 -10.02191 14.73632 0.04448 0.00338 47.36784 -37.28235 -23.28998 23.45235 -0.05949 0.65430 43.03426 -20.14713 -10.72172 22.82537 -0.00932 0.07941 34.81168 -10.03012 -2.78498 4.87700 -1.04400 3.60799 -41.57402 -8.45952 -7.72644 2.66500 0.00000 0.00002 0.00000 0.00000 5.00000 2.54300 0.00001 -0.00002 0.00001 0.00000 60.00000 9.23200 -0.30100 2.14399 -79.99626 0.00000 -0.00000 4.22500 0.00001 0.00000 -89.99582 0.00000 -0.00000 2.65400 0.00000 -0.00002 -69.99674 -0.00000 0.00000 8.92000 0.00000 -0.00002 -80.00000 -0.00000 0.00000 4.86300 0.00001 0.00000 -90.00000 -0.00000 0.00000 2.76500 -0.00001 0.00001 -70.00000 -0.00000 0.00000 8.68900 -0.12600 -2.08700 -80.00000 -0.00000 0.00000 4.53799 0.00000 -0.00001 -90.00000 -0.00000 0.00000 2.30500 0.00001 0.00000 -70.00000 -0.00000 0.00000 8.39100 -0.81700 -3.75803 -79.99626 0.00000 -0.00000 3.04400 0.00000 0.00002 -89.99582 0.00000 -0.00000 1.97500 -0.00001 -0.00001 -69.99674 -0.00000 0.00000 -1.47545 -0.27771 0.30442 6.16597 1.07486 10.20449 -14.38156 -0.04743 -0.00814 -28.84765 -25.06580 -10.48568 -21.70477 -0.67641 0.69228 -47.83582 -17.05466 25.94315 -22.71004 -0.01341 -0.31570 -32.98687 16.53317 21.99925 -4.87700 -1.04400 3.60800 40.90540 11.75460 -3.91034 -2.66501 -0.00002 -0.00001 -0.00000 0.00000 -5.00000 -2.54299 0.00002 -0.00001 0.00001 0.00000 -60.00001 -9.23200 -0.30100 2.14400 -2.00000 0.00000 -0.00000 -4.22500 -0.00001 -0.00002 -2.00000 0.00000 0.00000 -2.65399 0.00001 0.00000 -2.00000 -0.00000 0.00000 -8.91999 -0.00001 -0.00001 80.00000 -0.00000 0.00001 -4.86300 0.00000 0.00000 90.00000 -0.00001 0.00001 -2.76500 0.00001 -0.00001 70.00000 -0.00000 0.00000 -8.68899 -0.12600 -2.08700 80.00000 -0.00000 0.00001 -4.53802 0.00001 -0.00001 90.00000 -0.00001 0.00001 -2.30502 0.00001 0.00000 70.00000 -0.00000 0.00000 -8.39099 -0.81700 -3.75800 -2.00000 0.00000 -0.00000 -3.04400 0.00000 -0.00001 -2.00000 0.00000 0.00000 -1.97500 -0.00001 -0.00001 -2.00000 -0.00000 0.00000 -0.00001 0.67224 0.00002 -0.00000 -0.00003 0.00000 -0.03755 6.09383 -0.01534 -3.11855 -15.48650 23.03624 
-17.04539 89.19633 -193.66452 -4.96864 4.55594 1.95004 7.60261 0.48667 3.50371 10.96963 -11.13414 11.51618 0.06832 -30.92639 -0.89305 -13.94862 14.93446 -6.03028 0.30934 -34.74205 -0.03788 0.93678 8.37425 -6.00555 -7.19922 1.21098 3.49820 -39.97882 -56.20637 -28.29997 0.63567 -31.98693 0.34472 81.19452 64.24258 -45.71654 -0.08831 -38.67081 -0.01316 -0.52640 0.02767 -9.83307 0.04688 28.23915 -0.02078 -0.06059 2.34258 -1.09171 0.15815 20.55754 0.00080 -0.21709 2.79179 -0.99158 1.66087 -0.31960 0.34239 -7.86974 1.96403 -11.56488 14.63796 0.09933 -0.00035 36.28850 -39.54654 -32.22599 23.14967 -0.14698 1.04953 46.24466 -18.74354 -17.10416 22.80420 -0.06404 0.08659 36.00029 -1.99648 -3.21512 4.87700 -1.04400 3.60799 -41.57417 -8.45931 -7.72675 2.66500 0.00000 0.00002 0.00000 0.00000 5.00000 2.54300 0.00001 -0.00002 0.00001 0.00000 60.00000 9.23200 -0.30100 2.14399 -79.99655 0.00000 -0.00000 4.22500 0.00001 0.00000 -89.99615 0.00000 -0.00000 2.65400 0.00000 -0.00002 -69.99702 -0.00000 0.00000 8.92000 0.00000 -0.00002 -80.00000 -0.00000 0.00000 4.86300 0.00001 0.00000 -90.00000 -0.00000 0.00000 2.76500 -0.00001 0.00001 -70.00000 -0.00000 0.00000 8.68900 -0.12600 -2.08700 -80.00000 -0.00000 0.00000 4.53799 0.00000 -0.00001 -90.00000 -0.00000 0.00000 2.30500 0.00001 0.00000 -70.00000 -0.00000 0.00000 8.39100 -0.81700 -3.75803 -79.99655 0.00000 -0.00000 3.04400 0.00000 0.00002 -89.99615 0.00000 -0.00000 1.97500 -0.00001 -0.00001 -69.99702 -0.00000 0.00000 -1.47218 -0.39221 0.34623 9.01171 1.81074 11.56181 -14.70915 0.03723 -0.01711 -24.25658 -28.99947 -14.02313 -21.00722 -1.07794 0.36111 -39.38578 -25.13375 38.86068 -22.78716 0.13070 0.32856 -18.39355 -13.02595 21.92852 -4.87700 -1.04400 3.60800 40.90540 11.75460 -3.91034 -2.66501 -0.00002 -0.00001 -0.00000 0.00000 -5.00000 -2.54299 0.00002 -0.00001 0.00001 0.00000 -60.00001 -9.23200 -0.30100 2.14400 -2.00000 0.00000 -0.00000 -4.22500 -0.00001 -0.00002 -2.00000 0.00000 0.00000 -2.65399 0.00001 0.00000 -2.00000 -0.00000 0.00000 -8.91999 -0.00001 -0.00001 80.00000 -0.00000 0.00001 -4.86300 0.00000 0.00000 90.00000 -0.00001 0.00001 -2.76500 0.00001 -0.00001 70.00000 -0.00000 0.00000 -8.68899 -0.12600 -2.08700 80.00000 -0.00000 0.00001 -4.53802 0.00001 -0.00001 90.00000 -0.00001 0.00001 -2.30502 0.00001 0.00000 70.00000 -0.00000 0.00000 -8.39099 -0.81700 -3.75800 -2.00000 0.00000 -0.00000 -3.04400 0.00000 -0.00001 -2.00000 0.00000 0.00000 -1.97500 -0.00001 -0.00001 -2.00000 -0.00000 0.00000 -0.00001 0.67890 0.00002 -0.00000 -0.00003 0.00000 -0.01977 6.13997 -0.01233 -2.62602 -12.73367 26.06372 
-14.50976 84.74535 -192.80653 -4.84565 3.43031 -0.18734 7.77258 0.47358 3.50198 9.02291 -8.72992 10.20480 0.08811 -30.15205 -0.67148 -14.03020 12.77461 -5.38443 0.30852 -33.21183 -0.08994 -6.94341 -13.70870 -11.24568 -7.21031 1.22708 3.48391 -26.13336 -58.13529 -17.69128 1.05907 -32.89145 0.21605 68.08799 67.30892 -40.68780 -0.07348 -39.10302 0.01154 -0.78977 -1.91693 -9.89830 0.02976 28.59678 -0.03890 -0.18914 2.41731 -1.10618 0.16827 20.77927 -0.01387 -0.30171 2.80001 -1.05427 1.64543 -0.43070 0.36359 -10.79919 2.89774 -12.57853 14.44238 0.12606 -0.01432 24.70026 -39.36930 -41.78528 22.94204 -0.32648 1.42979 49.94778 -19.02901 -25.17035 22.80315 0.00845 0.07397 38.53808 8.59957 -1.66963 4.87700 -1.04400 3.60799 -41.57432 -8.45911 -7.72704 2.66500 0.00000 0.00002 0.00000 0.00000 5.00000 2.54300 0.00001 -0.00002 0.00001 0.00000 60.00000 9.23200 -0.30100 2.14399 -79.99682 0.00000 -0.00000 4.22500 0.00001 0.00000 -89.99644 0.00000 -0.00000 2.65400 0.00000 -0.00002 -69.99726 -0.00000 0.00000 8.92000 0.00000 -0.00002 -80.00000 -0.00000 0.00000 4.86300 0.00001 0.00000 -90.00000 -0.00000 0.00000 2.76500 -0.00001 0.00001 -70.00000 -0.00000 0.00000 8.68900 -0.12600 -2.08700 -80.00000 -0.00000 0.00000 4.53799 0.00000 -0.00001 -90.00000 -0.00000 0.00000 2.30500 0.00001 0.00000 -70.00000 -0.00000 0.00000 8.39100 -0.81700 -3.75803 -79.99682 0.00000 -0.00000 3.04400 0.00000 0.00002 -89.99644 0.00000 -0.00000 1.97500 -0.00001 -0.00001 -69.99726 -0.00000 0.00000 -1.46704 -0.46410 0.36439 10.85302 2.27121 12.23170 -14.92051 0.09360 -0.02050 -15.91785 -30.14564 -14.28446 -20.57151 -1.37890 -0.21124 -25.65333 -31.30206 53.13812 -22.17695 -0.10030 1.26982 -4.36649 -26.65237 26.22405 -4.87700 -1.04400 3.60800 40.90540 11.75460 -3.91034 -2.66501 -0.00002 -0.00001 -0.00000 0.00000 -5.00000 -2.54299 0.00002 -0.00001 0.00001 0.00000 -60.00001 -9.23200 -0.30100 2.14400 -2.00000 0.00000 -0.00000 -4.22500 -0.00001 -0.00002 -2.00000 0.00000 0.00000 -2.65399 0.00001 0.00000 -2.00000 -0.00000 0.00000 -8.91999 -0.00001 -0.00001 80.00000 -0.00000 0.00001 -4.86300 0.00000 0.00000 90.00000 -0.00001 0.00001 -2.76500 0.00001 -0.00001 70.00000 -0.00000 0.00000 -8.68899 -0.12600 -2.08700 80.00000 -0.00000 0.00001 -4.53802 0.00001 -0.00001 90.00000 -0.00001 0.00001 -2.30502 0.00001 0.00000 70.00000 -0.00000 0.00000 -8.39099 -0.81700 -3.75800 -2.00000 0.00000 -0.00000 -3.04400 0.00000 -0.00001 -2.00000 0.00000 0.00000 -1.97500 -0.00001 -0.00001 -2.00000 -0.00000 0.00000 -0.00001 0.68616 0.00002 -0.00000 -0.00003 0.00000 0.01450 6.16759 -0.01103 -2.49840 -10.83136 29.84742 
-12.17478 80.99203 -191.84668 -4.40980 2.40220 -2.22895 7.95255 0.45158 3.50401 8.24250 -6.10171 10.18670 0.05204 -29.47908 -0.45833 -19.91759 12.28882 -6.54343 -0.21756 -34.66336 -0.45960 -4.07056 -8.37863 -5.30149 -7.21704 1.22927 3.47121 -11.32006 -59.26249 -6.04224 1.58193 -34.21107 0.17074 60.72607 71.21926 -40.53827 -0.08433 -37.67657 -0.00458 0.48750 13.01989 -6.42650 0.00886 29.04569 -0.06164 -0.29860 2.44178 -0.89228 0.12465 21.11994 -0.03497 -0.40229 2.82233 -0.84721 1.62490 -0.52185 0.37583 -13.31455 3.65832 -13.27646 14.24710 0.12265 -0.02437 11.52783 -35.85252 -50.48503 22.74524 -0.83159 1.70060 54.76468 -20.93230 -35.90457 23.47562 0.32856 0.01737 33.30699 9.08226 -0.23394 4.87700 -1.04400 3.60799 -41.57446 -8.45891 -7.72731 2.66500 0.00000 0.00002 0.00000 0.00000 5.00000 2.54300 0.00001 -0.00002 0.00001 0.00000 60.00000 9.23200 -0.30100 2.14399 -79.99706 0.00000 -0.00000 4.22500 0.00001 0.00000 -89.99671 0.00000 -0.00000 2.65400 0.00000 -0.00002 -69.99748 -0.00000 0.00000 8.92000 0.00000 -0.00002 -80.00000 -0.00000 0.00000 4.86300 0.00001 0.00000 -90.00000 -0.00000 0.00000 2.76500 -0.00001 0.00001 -70.00000 -0.00000 0.00000 8.68900 -0.12600 -2.08700 -80.00000 -0.00000 0.00000 4.53799 0.00000 -0.00001 -90.00000 -0.00000 0.00000 2.30500 0.00001 0.00000 -70.00000 -0.00000 0.00000 8.39100 -0.81700 -3.75803 -79.99706 0.00000 -0.00000 3.04400 0.00000 0.00002 -89.99671 0.00000 -0.00000 1.97500 -0.00001 -0.00001 -69.99748 -0.00000 0.00000 -1.37827 -0.55384 0.38259 13.30617 3.01112 13.12092 -14.53966 0.13605 0.00402 -8.81166 -29.36786 -15.58800 -20.23698 -1.42212 -0.63211 -10.88271 -31.28265 62.74623 -21.20387 -0.75235 1.95173 15.19105 -32.10379 42.01819 -4.87700 -1.04400 3.60800 40.90540 11.75460 -3.91034 -2.66501 -0.00002 -0.00001 -0.00000 0.00000 -5.00000 -2.54299 0.00002 -0.00001 0.00001 0.00000 -60.00001 -9.23200 -0.30100 2.14400 -2.00020 0.00000 -0.00000 -4.22500 -0.00001 -0.00002 -2.00023 0.00000 0.00000 -2.65399 0.00001 0.00000 -2.00018 -0.00000 0.00000 -8.91999 -0.00001 -0.00001 80.00000 -0.00000 0.00001 -4.86300 0.00000 0.00000 90.00000 -0.00001 0.00001 -2.76500 0.00001 -0.00001 70.00000 -0.00000 0.00000 -8.68899 -0.12600 -2.08700 80.00000 -0.00000 0.00001 -4.53802 0.00001 -0.00001 90.00000 -0.00001 0.00001 -2.30502 0.00001 0.00000 70.00000 -0.00000 0.00000 -8.39099 -0.81700 -3.75800 -2.00020 0.00000 -0.00000 -3.04400 0.00000 -0.00001 -2.00023 0.00000 0.00000 -1.97500 -0.00001 -0.00001 -2.00018 -0.00000 0.00000 -0.00001 0.69510 0.00002 -0.00000 -0.00003 0.00000 0.04244 6.21317 -0.00945 -2.28041 -9.20839 32.60253 
